<svg xmlns="http://www.w3.org/2000/svg" xmlns:xlink="http://www.w3.org/1999/xlink" width="23" height="23" viewBox="0 0 23 23"><defs><path id="uhrza" d="M996.44 5090.16a11.34 11.34 0 1 1 0 22.68 11.34 11.34 0 0 1 0-22.68zm3.15 4.88h-1.64c-1.84 0-3.03 1.25-3.03 3.18v1.47h-1.65a.26.26 0 0 0-.26.26v2.12c0 .15.12.27.26.27h1.65v5.36c0 .14.11.26.26.26h2.15c.14 0 .26-.12.26-.26v-5.36h1.93c.14 0 .25-.12.25-.27v-2.12a.27.27 0 0 0-.07-.19.26.26 0 0 0-.18-.07h-1.93v-1.25c0-.6.14-.9.9-.9h1.1c.15 0 .26-.12.26-.26v-1.97a.26.26 0 0 0-.26-.27z"/></defs><g><g transform="translate(-985 -5090)"><use fill="#fff" xlink:href="#uhrza"/></g></g></svg>