<svg xmlns="http://www.w3.org/2000/svg" xmlns:xlink="http://www.w3.org/1999/xlink" width="288" height="73" viewBox="0 0 288 73"><defs><path id="rdtia" d="M297.13 2907.99c-3.27.1-4.7-1.78-3.61-4.25.89-2.03 4.74-.31 5.73 1.4 4.26-2.86 7.43-8.66 8.09-13.83 0-7.41-2.25-10.03-6.18-16.23-1.21-1.91-6.23-8.95-5.03-10.57 1.53-2.06 6.4.18 7.66 1.86 3.3 4.37 5.68 10.54 7.24 15.82 2.13 0-.01-9.76.7-12.4.17-.59.77-1.1 1.29-1.14 3.39-.26 2.96 3.88 2.55 6.41-1.35 8.35-6.07 23.61-12.34 29.94-1.88 1.88-3.25 2.9-6.1 2.99m-118.45-1.12c-3.32-.26-7.33-2.87-10.35-5.84-3.95-3.89-7.24-8.7-10.64-13.26-1.42-2.42-2.7-4.84-3.98-7.27h-.85c0 2.28.44 6.19-.99 7.98-.37.46-1.06.65-1.56.72-1.55.22-3.17.4-4.68 0-1.3-.35 0-1.71.42-2.57v-29.36c-.14-.57-.15-1.07-.42-1.43-.2-.25-.54-.15-.57-.28-.14-.56-.3-1.36.14-1.43 2.38-.4 5.82-.71 7.52 1.85v22.53c2.55 0 5.53-2.68 6.23-5 .96-3.14-1-5.65 2.64-5.65 2.03 0 1.28 4.1.5 5.51-.69 1.24-2 2-2.84 3.14 0 4 2.12 8.41 3.83 11.97.85 0 1.7-1 2.13-1.56 0-6.28.14-12.55.28-18.82-.43-1.14-1.82-3-1.7-4.13.03-.32.39-.57.7-.57 4.97-.14 9.94 0 15.05 0 1.56.7 1.98 4.98 1.98 6.7-1.98 0-2.7-1.86-3.69-3.57-1.7-1-3.97-1-5.96-.71-.14 4-.14 7.98-.14 11.97 1.85 0 3.87-.39 5.82 0 .44.1.6.8.7 1.43.06.31-.1.82-.42.85-2.1.27-4.11 0-6.1.15-.14 2-.5 4.02-.14 6.13.5 2.93 1.67 5.64 4.4 6.55 1.02.35 1.84-.96 2.77-1.63 2.37-1.72 4.68 1.8 2.9 3.54-4.63 4.52-10.28-2.36-14.9-4.9-.9-.5-2.76-1.04-3.6-1.33 6.45 11.04 9.81 16.6 14.26 15.63 2.38-.52 2.84-4.25 4.81-.76.7 1.24-.08 2.58-1.56 3.14a4.8 4.8 0 0 1-1.99.28m-35.04-34.07c0 4.86-.9 8.9-3.83 12.7-2.1 2.7-4.7 4.47-8.15 4.95-1.69.23-3.65.35-5.33.03-5.78-1.12-8.8-4.56-11.35-10.12-1.99-6.99-2.15-14.46 2.35-20 4.42-5.42 8.98-7.75 15.95-5.38a15 15 0 0 1 5.11 3c2.41 2.15 3.69 5.32 4.4 8.41.48 2.1.85 4.26.85 6.41zm-7.39-.2c0-8.77-3.42-15.93-7.62-15.93s-7.63 7.16-7.63 15.93 3.43 15.92 7.63 15.92c4.2 0 7.62-7.15 7.62-15.92 0 0 0 8.77 0 0zm138.88-7.37c.9-2.55 6.67-.43 7.52 2.42.14 5.99-.15 12 .43 17.96.13 1.4 1 2.57 2.27 3.42 3.26 1.29 4.54-.71 6.38-3 1.7-3.56 2.37-9.1-1.84-11.68-1.96-1.2-2.46-4.88.57-5.28 5.76-.75 5.35 10.54 4.4 14.12-1.1 4.05-2.27 6.75-6.39 8.4-1.6.65-4.77.78-6.27-.02-2.74-1.45-3.52-2.35-4.8-5.25-2.25-5.1-1.42-12.68-1.42-18.24-.26-.4-1.23-1.76-.85-2.85m40.75 24.1c-.72-1.05.9-2.34 1.28-3.7 1.66-5.83.42-12.68.42-18.67 0-1.71-3.36-2.84-1.42-3.7 2.34-1.05 5.25.14 7.66 1 1.99 3.84 4.51 9.05 6.1 13.25.8 0 4.79-10.37 5.54-11.8a5.67 5.67 0 0 1 2.51-2.04c2.07-.75 3.35-.73 5.73-.33.57.1 1.5.94 1.26 1.48-.4.92-1.27 1.57-1.84 2.42v18.82c.42.57 1.16 1.01 1.56 1.71.21.37.26 1.75-.23 2.03a5.57 5.57 0 0 1-7.57-2.46c-.14-4.84-.29-9.69-.29-14.4h-.42c-2.13 5.42-3.68 11.1-6.39 16.4-.32.63-1.59.5-1.84 0-4.22-8.49-5.78-16.82-6.67-16.82-.14 4.42.53 8.89-.14 13.26-.57 3.69-3.57 6.05-5.25 3.56m-111.52-1.14c.07.4.18 1.06-.56 1.14-5.51.6-6.73-1.71-8.29-6.56h-.17c-1.45-.02-3.9-.21-5.59 0-.7 2.71-1.3 5.55-3.97 6.56-.8.3-1.65.51-2.27.14-1.71-1.01 5.78-21 7.05-23.84 1-2.25 3.04-4.39 4.72-1.53 2.32 3.91 5.29 15.15 8.09 22.66.18.48.88.73 1 1.43zm-11.91-14.83c-.06-.13-.39-.13-.43 0-.7 2.25-1.13 4.7-1.7 7.13 2.14.06 2.46.07 4.35 0-1.53-5.16-1.2-4.53-2.22-7.13zm2.9 9.41c0 .02 0 .02 0 0zm43.04-19.88c2.5 3.15 11.8 26.07 7.68 27.64-1.73.66-4.2-.32-4.9-2.56l-1.91-5.99-4.33.06c-1.33 4.61-4.08 9.9-8.83 9.29-2.64-.34-4.28-1.72-5.08-3.22-.8-1.5-1.23-7.93-1.23-7.93l-5.7.27s-.09 5.48-1.28 7.79c-1.25 2.4-3.65 2.69-5.43 2.06-3.54-1.26-1.7-2.8-1.7-2.8s1.22-.14 1.76-1.78c.2-1.85 0-18.73 0-18.73s-1.56-1.43-1.63-2.53c-.06-1.1 1.48-1.5 4.55-.61 2.94.86 3.3 3.96 3.4 5.26.26 3.51.26 8.47.26 8.47l5.9.14s-.13-10.32.48-11.9c.61-1.56 4.2-2.8 6.1-2.45 1.9.34.62 2.46.08 2.73-.55.28-.2 21.84-.2 21.84s1.28.88 1.75-.63c2.78-8.98 6.7-22.08 6.84-22.51.3-.82 1.56-4.25 3.42-1.91zm1.06 16.28c-1.53-5.16-1.2-4.54-2.23-7.13-.05-.13-.38-.14-.42 0-.7 2.24-1.14 4.7-1.7 7.13 2.14.06 2.46.07 4.35 0 0 0 1.52 5.16 0 0zm10.27 26.8s1.04-.52 1.46-1.88c.42-1.37.84-34.53.21-35.47-.63-.95-1.57-4.1-.84-4.73.46-.39 4.72 2.07 7 1.05 2.82-1.26 6.47-3.25 11.06.13a11.35 11.35 0 0 1 4.68 7c1.39 6.57.32 15.95-4.8 18.54-4.95 2.49-8.01-.06-9.69-3.2-1.67-3.16.97-5.77 2.58-5.51 1.6.25 2 .48 1.75 5.5 3.45 0 4.76-3.78 4.76-10.39 0-6.61-3.02-11.54-5.53-11.12-2.5.42-4.8 9.55-5.33 16.47-.52 6.93 1.99 22.15-.1 23.83a7.2 7.2 0 0 1-6.38 1.15c-1.08-.38-.83-1.36-.83-1.36M73.76 2865.2c3.41-.18 6.83 0 10.27 0 1.44 1.52 2.87 3.04 4.33 4.56-8.4.17-22.07-1.9-24.28 8.45-1.03 4.86 1.67 7.21 5.56 10.05-2.14.39-5.67-3.4-6.59-5.12-4.63-8.72 1.34-17.44 10.7-17.94zm2.75 7.33l-10.64 8.9m15.97-18.65c-3.17 0-6.34-.26-9.5 0-12.86 1.04-17.93 17.18-6.3 24.53-2.34-.3-4.8-2.6-5.63-3.83-7.67-11.28-1.33-19.6 8.01-26.78.98-.75 1.7-1.36 1.6-2.89-.28-4.63-4.77-5.52-8.6-3.1-.58.49-.67.63-.82.82.53-2.42.34-4.82 0-7.25 5.75 3.78 8.85 1.96 11.62-3.6 1.28-2.6 1.13-2.49 2.2-5.7.88 2.33 1.77 4.58 3.41 6.49 3.17 3.67 7.28 5.16 11.88 5.93-1.49.35-5.01 1.05-6.38 1.9-3.44 2.16-4.1 3.72-3.55 7.9.26 2.02 1.23 3.72 2.06 5.58-3.17 0-6.34-.26-9.5 0-12.86 1.04-17.93 17.18-6.3 24.53-2.34-.3-4.8-2.6-5.63-3.83-7.67-11.28-1.33-19.6 8.01-26.78.98-.75 1.7-1.36 1.6-2.89-.28-4.63-4.77-5.52-8.6-3.1-.58.49-.67.63-.82.82.53-2.42.34-4.82 0-7.25 5.75 3.78 8.85 1.96 11.62-3.6 1.28-2.6 1.13-2.49 2.2-5.7.88 2.33 1.77 4.58 3.41 6.49 3.17 3.67 7.28 5.16 11.88 5.93-1.49.35-5.01 1.05-6.38 1.9-3.44 2.16-4.1 3.72-3.55 7.9"/></defs><g><g transform="translate(-57 -2835)"><use fill="#fff" xlink:href="#rdtia"/></g></g></svg>