<svg xmlns="http://www.w3.org/2000/svg" xmlns:xlink="http://www.w3.org/1999/xlink" width="171" height="36" viewBox="0 0 171 36"><defs><path id="prqva" d="M223.25 126.52h-4.62v5.66h-2.61v-8.02h9.84v8.02h-2.6zm10.53 0h-3.58c-.01 4.4-.69 5.66-2.41 5.66h-1.24v-2.36h.19l.32-.01a.46.46 0 0 0 .18-.05c.08-.05.16-.16.23-.5.12-.68.13-2.07.13-4.9v-.2h8.79v8.02h-2.61zm10.73 4.39h-4.18l-.69 1.27h-3.02l3.78-8.02h4.03l3.78 8.02h-3.01zm-2.15-4.66l-1.02 2.3h2.15l-1.02-2.3zm13.05 2.96h-4.42v2.97h-2.61v-8.02h2.6v2.69h4.43v-2.7h2.6v8.03h-2.6zm17.9 2.97h-2.6v-5.66h-3.2v-2.36h8.99v2.36h-3.2zm9.45-1.27h-4.18l-.69 1.27h-3.01l3.77-8.02h4.03l3.79 8.02h-3.02zm-2.15-4.66l-1.02 2.3h2.15l-1.02-2.3zm-21.85-2.09h8.16v2h-5.55v1.01h5.3v2h-5.3v1h5.55v2h-8.16zm50.58-9.43c.89.51 1.71 1.05 2.45 1.77a8.73 8.73 0 0 1 2.14 6.42 8.08 8.08 0 0 1-1 3.56c-.42.8-.96 1.5-1.59 2.11a11.05 11.05 0 0 1-7.83 3.13c-3.12 0-5.93-1.21-7.84-3.13a8.26 8.26 0 0 1-1.58-2.11 8.35 8.35 0 0 1-1.02-3.56v-.6c0-2.26.82-4.31 2.16-5.82.73-.72 1.55-1.29 2.43-1.8.5-.23.97-.44 1.59-.59l-.53.25a7.21 7.21 0 0 0-3.52 3.33 6.93 6.93 0 0 0-.9 3.42c0 4.35 4.12 7.88 9.2 7.88 5.1 0 9.22-3.53 9.22-7.88 0-1.23-.33-2.39-.9-3.42a7.2 7.2 0 0 0-3.53-3.33 9.92 9.92 0 0 0-.52-.25c.55.12 1.07.39 1.57.62zm-12.44 4.24a5 5 0 0 0 2.73 4.32 7.63 7.63 0 0 0 3.86 1.02c1.35 0 2.6-.33 3.64-.89a5.05 5.05 0 0 0 2.97-4.45c0-2.32-1.86-4.3-4.42-4.94 3.27.47 5.78 3.1 5.78 6.28a6 6 0 0 1-2.39 4.83 8.83 8.83 0 0 1-5.59 1.9c-4.16 0-7.57-2.65-7.94-6.04v-.69c0-3.18 2.5-5.81 5.78-6.28-2.56.65-4.42 2.62-4.42 4.94zm12.12-.69c0 2.24-2.28 4.08-5.21 4.31l-.61.02c-2.94-.25-5.22-2.09-5.22-4.33 0-2.17 2.15-3.97 4.96-4.28l-.12.02c-2.07.24-3.65 1.53-3.65 3.08 0 1.7 1.9 3.07 4.24 3.1h.18c2.35-.03 4.23-1.4 4.23-3.1 0-1.55-1.57-2.84-3.64-3.07l-.12-.03c2.8.31 4.96 2.1 4.96 4.28zm-17.25 5.35c-.25 5.48 5.38 9.97 11 10.3.27.02.53.03.8.03 5.84 0 11.93-4.63 11.67-10.33-.17-3.77-1.74-6.3-3.98-7.91A13.09 13.09 0 0 1 317 126.5c0 7.28-6.04 13.19-13.49 13.19-.25 0-.5 0-.73-.02-7.12-.37-12.77-6.13-12.77-13.17 0-4.47 2.28-8.4 5.75-10.8-2.25 1.63-3.81 4.15-3.99 7.92zm37.4 5.57h-4.58v2.95h-2.7v-7.97h2.7v2.68h4.59v-2.68h2.7v7.97h-2.7zm4.6-5.02h8.47v2h-5.77v1h5.51v1.98h-5.5v1h5.76v2h-8.47zm17.57 2.35h-4.79v5.62h-2.7v-7.97h10.2v7.97h-2.7zm9.82 5.62h-2.71v-5.62h-3.32v-2.35h9.33v2.35h-3.3zm11.6-1.63c-.2.35-.42.66-.67.9-.53.5-1.22.73-2.4.73h-2.59v-2.34h2.71c.17 0 .22-.02.23-.03l-5.06-5.6h3.73l2.71 3.23a.74.74 0 0 1 .06-.12l1.75-3.1h3.05l-2.84 5.1-.68 1.23zm11.53-1.32h-4.58v2.95H377v-7.97h2.7v2.68h4.58v-2.68H387v7.97h-2.7zM216 144.91h2.94v.7h-1.03v2.9h-.87v-2.9H216zm5.23 1.8c0-1.2.72-1.85 1.7-1.85 1 0 1.71.65 1.71 1.85 0 1.2-.72 1.86-1.7 1.86-.99 0-1.71-.66-1.71-1.86zm.9 0c0 .84.42 1.18.8 1.18.4 0 .8-.34.8-1.18 0-.83-.4-1.17-.8-1.17-.38 0-.8.34-.8 1.17zm6.18 3.29h-.87v-5.09h.76v.63h.02a1.2 1.2 0 0 1 1.08-.68c.75 0 1.4.52 1.4 1.85s-.72 1.86-1.44 1.86c-.48 0-.77-.25-.95-.54h-.02l.02.59zm0-3.29c0 .77.39 1.1.74 1.1s.73-.33.73-1.1c0-.76-.38-1.1-.73-1.1s-.74.34-.74 1.1zm5.18-1.8h2.31v.7h-1.44v2.9h-.87zm4.5 1.8c0-1.2.72-1.85 1.7-1.85.99 0 1.7.65 1.7 1.85 0 1.2-.71 1.86-1.7 1.86-.98 0-1.7-.66-1.7-1.86zm.9 0c0 .84.42 1.18.8 1.18.39 0 .8-.34.8-1.18 0-.83-.41-1.17-.8-1.17-.38 0-.8.34-.8 1.17zm5.3-1.8h1.63c.96 0 1.14.5 1.14.89 0 .45-.27.73-.61.8v.02c.37.03.76.29.76.88 0 .65-.49 1.01-1.24 1.01h-1.67zm.88.63v.78h.53c.18 0 .5-.01.5-.4 0-.36-.33-.38-.5-.38zm0 1.4v.95h.55c.16 0 .58 0 .58-.48 0-.44-.38-.47-.58-.47zm4.7-.23c0-1.2.73-1.85 1.72-1.85.98 0 1.7.65 1.7 1.85 0 1.2-.72 1.86-1.7 1.86-.99 0-1.71-.66-1.71-1.86zm.92 0c0 .84.41 1.18.8 1.18.38 0 .8-.34.8-1.18 0-.83-.42-1.17-.8-1.17-.39 0-.8.34-.8 1.17zm5.27-.64h2.58v.82h-2.58zm6.4 3.93h-.86v-5.09h.76v.63h.01a1.2 1.2 0 0 1 1.08-.68c.76 0 1.4.52 1.4 1.85s-.71 1.86-1.44 1.86c-.48 0-.77-.25-.95-.54h-.01l.02.59zm0-3.29c0 .77.39 1.1.74 1.1s.74-.33.74-1.1c0-.76-.39-1.1-.74-1.1s-.73.34-.73 1.1zm5.4-.87v-.75c.4-.17.77-.23 1.22-.23 1.34 0 1.46.84 1.46 1.38v2.27h-.85v-.53h-.01c-.07.16-.32.59-1.04.59-.84 0-1.18-.54-1.18-1.1 0-.5.24-1.19 1.65-1.19H269.57v-.14c0-.4-.35-.62-.75-.62-.28 0-.62.05-1.06.32zm1.81 1.04h-.15c-.48 0-1.17 0-1.17.58 0 .26.14.47.53.47.36 0 .8-.18.8-.96zm4.37.08v-.66h.45c.4 0 .48-.22.48-.37 0-.2-.16-.4-.56-.4-.17 0-.59.05-.96.24v-.68c.37-.15.67-.23 1.1-.23 1.04 0 1.3.51 1.3.94 0 .6-.4.77-.57.8v.02c.29.05.74.24.74.84 0 .63-.54 1.1-1.5 1.1-.23 0-.72-.03-1.24-.28l.07-.69c.47.24.92.3 1.14.3.36 0 .62-.18.62-.49 0-.25-.16-.44-.62-.44zm4.8-2.05h1.63c.96 0 1.14.5 1.14.89 0 .45-.27.73-.61.8v.02c.38.03.76.29.76.88 0 .65-.49 1.01-1.23 1.01h-1.68zm.88.63v.78h.54c.17 0 .49-.01.49-.4 0-.36-.33-.38-.5-.38zm0 1.4v.95h.56c.16 0 .57 0 .57-.48 0-.44-.38-.47-.58-.47zm5.14-2.03h2.67v3.6h-.87v-2.9h-1.02v.8c0 1.78-.16 2.16-1.03 2.16-.14 0-.25 0-.37-.06l.04-.72.15.03c.5 0 .43-.64.43-1.41zm8.64 2.09h-2.26c.02.46.33.89.98.89.39 0 .73-.1 1.04-.25v.7a3.1 3.1 0 0 1-1.15.23c-.99 0-1.78-.59-1.78-1.86 0-1.16.75-1.85 1.64-1.85 1.5 0 1.53 1.6 1.53 1.92zm-2.26-.65h1.36c.01-.6-.36-.84-.68-.84-.39 0-.68.37-.68.84zm5.05-1.44h.87v1.64h.04l1.06-1.64h.97l-1.23 1.7 1.4 1.9h-1.1l-1.1-1.72h-.04v1.72h-.87zm5.66.93v-.75c.4-.17.77-.23 1.22-.23 1.34 0 1.46.84 1.46 1.38v2.27h-.85v-.53h-.01c-.07.16-.32.59-1.04.59-.84 0-1.18-.54-1.18-1.1 0-.5.24-1.19 1.65-1.19H303.66v-.14c0-.4-.35-.62-.75-.62-.28 0-.62.05-1.06.32zm1.81 1.04h-.15c-.48 0-1.17 0-1.17.58 0 .26.14.47.53.47.36 0 .8-.18.8-.96zm4.07-1.97h2.66v3.6h-.87v-2.9h-1.02v.8c0 1.78-.15 2.16-1.03 2.16-.14 0-.24 0-.37-.06l.04-.72.15.03c.5 0 .44-.64.44-1.41zm5.62 0h.87v1.28h.67c1.28 0 1.4.83 1.4 1.16 0 .63-.42 1.16-1.33 1.16h-1.6zm.87 1.9v1.08h.55c.4 0 .6-.26.6-.54 0-.2-.12-.53-.6-.53zm4.77-1.9h.87v1.36h1.4v-1.36h.87v3.6h-.87v-1.54h-1.4v1.54h-.87zm9.57 0h.87v3.6h-.87zm-3.44 0h.87v1.28h.67c1.21 0 1.4.75 1.4 1.16 0 .63-.42 1.16-1.34 1.16h-1.6zm.87 1.9v1.08h.54c.4 0 .61-.26.61-.54 0-.2-.12-.53-.61-.53zm6.43-1.9h.87v1.9l-.02.64h.01l1.43-2.54h.97v3.6h-.87v-1.86l.03-.67h-.02l-1.47 2.53h-.93zm2.4-1.63l.32.32c-.16.32-.48.68-1.06.68-.58 0-.9-.36-1.05-.68l.32-.32c.22.3.52.33.73.33.21 0 .5-.04.74-.33zm7.5 1.63h.87v1.64h.03l1.06-1.64h.97l-1.23 1.7 1.4 1.9h-1.09l-1.11-1.72h-.03v1.72h-.87zm5.32 1.8c0-1.2.72-1.85 1.7-1.85 1 0 1.72.65 1.72 1.85 0 1.2-.73 1.86-1.71 1.86-.99 0-1.71-.66-1.71-1.86zm.9 0c0 .84.42 1.18.8 1.18.4 0 .8-.34.8-1.18 0-.83-.4-1.17-.8-1.17-.38 0-.8.34-.8 1.17zm7.84 1.8h-.82l-.66-2.11-.16-.58h-.03l.01.64v2.05h-.87v-3.6h1.22l.68 2.06.19.64h.06l.18-.64.69-2.06h1.21v3.6h-.87v-2.05l.02-.64h-.03l-.17.58zm4.7-3.6h3.08v3.6h-.87v-2.9h-1.35v2.9h-.87zm6.31 0h2.67v3.6h-.87v-2.9h-1.03v.8c0 1.78-.15 2.16-1.03 2.16-.14 0-.24 0-.37-.06l.04-.72c.05.02.1.03.16.03.5 0 .43-.64.43-1.41zm8.63 2.09h-2.26c.03.46.34.89.99.89.38 0 .72-.1 1.04-.25v.7a3.1 3.1 0 0 1-1.15.23c-.99 0-1.78-.59-1.78-1.86 0-1.16.74-1.85 1.63-1.85 1.5 0 1.53 1.6 1.53 1.92zm-2.26-.65h1.37c.01-.6-.37-.84-.69-.84-.38 0-.67.37-.68.84zm5.06-1.44h.87v1.64h.03l1.06-1.64h.98l-1.23 1.7 1.4 1.9h-1.1l-1.1-1.72h-.04v1.72h-.87zm8.05.04l-.05.69c-.16-.07-.34-.1-.54-.1-.58 0-1.03.46-1.03 1.19 0 .65.37 1.16.97 1.16.2 0 .44-.04.67-.15l.03.69c-.16.05-.47.14-.85.14-1.18 0-1.73-.94-1.73-1.9 0-.95.62-1.81 1.8-1.81.21 0 .48.02.73.1z"/></defs><g><g transform="translate(-216 -114)"><use fill="#fff" xlink:href="#prqva"/></g></g></svg>