<svg xmlns="http://www.w3.org/2000/svg" xmlns:xlink="http://www.w3.org/1999/xlink" width="20" height="20"><defs><path id="a" d="M1532.75 47.75a.83.83 0 0 1-1.18 0l-4.49-4.49a8.53 8.53 0 0 1-5.47 1.96c-2.3 0-4.46-.9-6.09-2.52a8.56 8.56 0 0 1-2.52-6.09c0-2.3.9-4.46 2.52-6.09a8.55 8.55 0 0 1 6.1-2.52c2.29 0 4.45.9 6.08 2.52a8.55 8.55 0 0 1 2.52 6.1c0 2-.69 3.92-1.96 5.46l4.5 4.5c.32.32.32.85 0 1.17zm-11.14-4.2a6.9 6.9 0 0 0 6.94-6.94 6.9 6.9 0 0 0-11.85-4.91 6.9 6.9 0 0 0 0 9.82 6.88 6.88 0 0 0 4.9 2.03z"/></defs><use fill="#3c3c3b" xlink:href="#a" transform="translate(-1513 -28)"/></svg>