<svg xmlns="http://www.w3.org/2000/svg" xmlns:xlink="http://www.w3.org/1999/xlink" width="23" height="23" viewBox="0 0 23 23"><defs><path id="b987a" d="M257.97 190.88l-.23.5c-.07.14-.24.2-.4.17a1.2 1.2 0 0 0-.97 2.1c.13.1.2.28.13.42l-.21.46c-.07.14-.24.2-.4.17a1.2 1.2 0 0 0-.97 2.1c.12.1.19.27.12.42l-.2.45c-.08.15-.25.2-.4.18a1.2 1.2 0 0 0-.98 2.1c.13.1.2.27.13.41l-.21.46c-.07.14-.24.2-.4.17-.03 0-16.86-7.76-16.88-7.78-.12-.1-.2-.27-.12-.41l.2-.46c.07-.14.24-.2.4-.17a1.2 1.2 0 0 0 1.4-1.42h.01l.29.06.62.13.9.18 1.14.23 1.3.26 1.44.29 1.5.3 1.5.3 1.48.3 1.38.27 1.23.25 1.04.2.79.17.53.1c.62.16 1.34-.24 1.47-.9l.1-.48c.1-.52-.18-1.04-.68-1.27a.37.37 0 0 1-.2-.42c.03-.17.18-.3.35-.3.55-.03 1-.4 1.1-.92l.05-.17 2.51 1.16c.15.07.21.24.14.39zm-2.13-8.34c-.03.16-.19.25-.34.26a1.2 1.2 0 0 0-.46 2.28c.14.06.25.21.21.37l-.1.5c-.02.15-.18.24-.34.25a1.2 1.2 0 0 0-.45 2.28c.14.06.24.21.21.37l-.02.13-.08.36c-.03.16-.18.25-.34.26a1.2 1.2 0 0 0-.46 2.28c.15.06.25.21.22.37l-.1.49c-.03.15-.18.25-.34.26-.03 0-18.2-3.64-18.23-3.66-.14-.07-.25-.21-.21-.37l.1-.49c.02-.15.18-.25.34-.26a1.2 1.2 0 0 0 .46-2.27c-.15-.07-.25-.22-.22-.38l.1-.49c.03-.15.18-.25.34-.26a1.2 1.2 0 0 0 .46-2.27c-.15-.07-.25-.22-.22-.38l.1-.49c.03-.15.18-.25.34-.26a1.2 1.2 0 0 0 .46-2.27c-.15-.07-.25-.22-.22-.38l.11-.54a.29.29 0 0 1 .28-.23l18.28 3.66c.16.03.26.18.23.34zm-14.9-1.75a.58.58 0 0 0-.68.46l-.93 4.63-.23 1.12-.08.44a.58.58 0 1 0 1.14.23l.43-2.16.25-1.21.3-1.5.26-1.33a.58.58 0 0 0-.46-.68zm10.53 2.11a.58.58 0 0 0-.68.46l-.72 3.56-.53 2.63a.58.58 0 0 0 1.14.23l.48-2.36.77-3.83a.58.58 0 0 0-.46-.69z"/></defs><g><g transform="translate(-235 -178)"><use fill="#fff" xlink:href="#b987a"/></g></g></svg>