<svg xmlns="http://www.w3.org/2000/svg" xmlns:xlink="http://www.w3.org/1999/xlink" width="1920" height="224" viewBox="0 0 1920 224"><defs><path id="78ula" d="M31 870s132-108 330-129 323.5 14 377 25 251 57.5 292 67 197.5 40 291 39 256-15 337-41 174-55 293-149v214H31z"/><path id="78ulb" d="M0 890s132-108 330-129 323.5 14 377 25 251 57.5 292 67 197.5 40 291 39 256-15 337-41 174-55 293-149v204H0z"/></defs><g><g transform="translate(0 -682)"><use fill="#0898ec" xlink:href="#78ula"/></g><g transform="translate(0 -682)"><use fill="#fff" xlink:href="#78ulb"/></g></g></svg>