<svg xmlns="http://www.w3.org/2000/svg" xmlns:xlink="http://www.w3.org/1999/xlink" width="14" height="22"><defs><path id="a" d="M831.82 356.72c1.06-.05 2.12 0 3.2 0l1.34 1.38c-2.61.05-6.87-.58-7.56 2.55-.32 1.47.52 2.18 1.73 3.03-.66.12-1.76-1.02-2.05-1.54-1.44-2.64.42-5.27 3.34-5.42zm2.51-.73c-.98 0-1.97-.08-2.95 0-4 .31-5.59 5.19-1.97 7.4-.73-.09-1.49-.78-1.75-1.15-2.39-3.4-.41-5.92 2.5-8.09.3-.22.52-.4.5-.87-.1-1.4-1.5-1.67-2.68-.93-.19.14-.21.18-.26.24.16-.73.1-1.45 0-2.19 1.79 1.14 2.75.6 3.62-1.09.4-.78.35-.75.68-1.71.28.7.55 1.38 1.06 1.95a5.9 5.9 0 0 0 3.7 1.8c-.46.1-1.56.31-1.98.57-1.08.65-1.28 1.12-1.11 2.38.08.61.38 1.13.64 1.69-.98 0-1.97-.08-2.95 0-4 .31-5.59 5.19-1.97 7.4-.73-.09-1.49-.78-1.75-1.15-2.39-3.4-.41-5.92 2.5-8.09.3-.22.52-.4.5-.87-.1-1.4-1.5-1.67-2.68-.93-.19.14-.21.18-.26.24.16-.73.1-1.45 0-2.19 1.79 1.14 2.75.6 3.62-1.09.4-.78.35-.75.68-1.71.28.7.55 1.38 1.06 1.95a5.9 5.9 0 0 0 3.7 1.8c-.46.1-1.56.31-1.98.57-1.08.65-1.28 1.12-1.11 2.38"/></defs><use fill="#9bdcff" xlink:href="#a" transform="translate(-826 -347)"/></svg>