<svg xmlns="http://www.w3.org/2000/svg" xmlns:xlink="http://www.w3.org/1999/xlink" width="24" height="23"><defs><path id="a" d="M1030.83 5113.1a11.61 11.61 0 0 1 0-23.2 11.61 11.61 0 0 1 0 23.2zm6.6-15.65c0-1.4-1.15-2.55-2.55-2.55h-8.1a2.55 2.55 0 0 0-2.54 2.55v8.1c0 1.4 1.14 2.55 2.54 2.55h8.1c1.4 0 2.55-1.15 2.55-2.55zm-2.55 9.36h-8.1c-.7 0-1.26-.57-1.26-1.26v-5.4h1.97a3.61 3.61 0 1 0 6.68 0h1.97v5.4c0 .7-.57 1.26-1.26 1.26zm-1.22-10.38h2.24v2.23h-2.23zm-2.83 7.4a2.32 2.32 0 1 1 0-4.66 2.32 2.32 0 0 1 0 4.65z"/></defs><use fill="#fff" xlink:href="#a" transform="translate(-1019 -5090)"/></svg>