<svg xmlns="http://www.w3.org/2000/svg" xmlns:xlink="http://www.w3.org/1999/xlink" width="23" height="23"><defs><path id="a" d="M963.23 5090.16a11.35 11.35 0 1 1 .02 22.7 11.35 11.35 0 0 1-.02-22.7zm6.33 14.24a6.55 6.55 0 0 0-1.32-1.53v-.02h-.02a7.55 7.55 0 0 1-.55-.55c-.13-.17-.17-.35-.09-.53.05-.14.25-.42.6-.86l.43-.56c.77-1 1.1-1.65 1-1.93l-.04-.07c-.02-.04-.1-.07-.2-.1a1.05 1.05 0 0 0-.43-.02l-1.92.01a.25.25 0 0 0-.13 0l-.09.02-.03.02-.03.02a.3.3 0 0 0-.07.07 10.69 10.69 0 0 1-1.58 2.74l-.25.23c-.08.05-.14.08-.18.07l-.11-.03a.44.44 0 0 1-.15-.16.71.71 0 0 1-.08-.25 2.8 2.8 0 0 1-.02-.59 9.7 9.7 0 0 0 .02-.81 81.28 81.28 0 0 1 .02-.83c0-.13 0-.23-.02-.3a1.01 1.01 0 0 0-.07-.2.36.36 0 0 0-.14-.17.8.8 0 0 0-.22-.09 4.5 4.5 0 0 0-.9-.08c-.83 0-1.36.04-1.6.16a.9.9 0 0 0-.25.2c-.08.1-.09.14-.03.15.27.04.46.14.57.28l.04.08a3.03 3.03 0 0 1 .15.78 5.06 5.06 0 0 1-.15 1.67 1.3 1.3 0 0 1-.08.14.11.11 0 0 1-.04.04.5.5 0 0 1-.18.03.43.43 0 0 1-.22-.1 1.6 1.6 0 0 1-.28-.25 7.8 7.8 0 0 1-.7-1.13l-.1-.2a16.1 16.1 0 0 1-.58-1.2.43.43 0 0 0-.16-.22l-.04-.02a.71.71 0 0 0-.26-.1l-1.82.02c-.19 0-.31.04-.38.12l-.03.04a.21.21 0 0 0-.02.1c0 .06.02.11.04.18a21.52 21.52 0 0 0 2.4 4.17 14.43 14.43 0 0 0 .65.8l.17.15a7.97 7.97 0 0 0 1.16.81 3.74 3.74 0 0 0 1.85.46h.76a.53.53 0 0 0 .36-.14l.02-.03a.66.66 0 0 0 .07-.3c0-.2.02-.36.05-.52.03-.15.07-.26.11-.34a.84.84 0 0 1 .26-.29.45.45 0 0 1 .05-.02c.1-.03.23 0 .38.1.14.1.28.23.4.38l.46.51c.18.2.33.33.47.42l.13.08c.09.05.2.1.35.15.14.04.26.05.37.03l1.7-.03c.18 0 .3-.02.4-.08.1-.05.15-.11.17-.18a.5.5 0 0 0 0-.22.8.8 0 0 0-.05-.18z"/></defs><use fill="#fff" xlink:href="#a" transform="translate(-952 -5090)"/></svg>