<svg xmlns="http://www.w3.org/2000/svg" xmlns:xlink="http://www.w3.org/1999/xlink" width="1920" height="224"><defs><path id="a" d="M31 870s132-108 330-129 323.5 14 377 25 251 57.5 292 67 197.5 40 291 39 256-15 337-41 174-55 293-149v214H31z"/><path id="b" d="M0 890s132-108 330-129 323.5 14 377 25 251 57.5 292 67 197.5 40 291 39 256-15 337-41 174-55 293-149v204H0z"/></defs><use fill="#0898ec" xlink:href="#a" transform="translate(0 -682)"/><use fill="#fff" xlink:href="#b" transform="translate(0 -682)"/></svg>