<svg xmlns="http://www.w3.org/2000/svg" viewBox="0 0 303.47 236.43"><defs><style>.cls-1{fill:#f37422;}.cls-2{fill:#e34f25;}.cls-3{fill:#f29a24;}.cls-4{fill:#fff;}.cls-5{fill:none;}</style></defs><title>Ресурс 1</title><g id="Слой_2" data-name="Слой 2"><g id="Layer_1" data-name="Layer 1"><path class="cls-1" d="M185.48,71.33c-5.86-4.29-11.63-9.22-14-16.16-2.53-7.27-1.75-15,.82-22.26A24.58,24.58,0,0,1,187,18a30.07,30.07,0,0,1,10.48-1.8,12.09,12.09,0,0,1,3.84.37c.81.16,1.61.39,2.4.62.3.08,3.1,1.2,1.8.62,11,5,14.84,16.24,13.8,28.24-.23,2.57.31-1.76-.13.78-.14.77-.32,1.53-.51,2.29s-1.54,4.5-.92,3.05a18.55,18.55,0,0,1-4.87,7.22,25.63,25.63,0,0,1-6.07,4.13c-4.51,1.86-10.51,1.55-14.11,5.15a8.32,8.32,0,0,0,3.72,14.1c4.68,1.29,10.66-.59,15.07-2.29a39.78,39.78,0,0,0,19.15-15.37c8.54-12.85,7.61-29.83,1.11-43.24a38.77,38.77,0,0,0-37-21.83c-19.88,1.24-35.42,15.06-39.56,34.45-3.91,18.31,5.88,47.83,29.45,43.32,3.35-.64,3.07-4.88.85-6.51Z"/><path class="cls-1" d="M102.41,92.13C91.56,87.89,81.07,84.85,78.22,72.8s6.94-20.66,17.17-23.67c4.84-1.43,10.08-1.37,13.71.33,4.73,2.22,7.81,7.33,8.23,13.31.49,7-2.2,13.57-5.88,19.37a33.44,33.44,0,0,1-6.81,7.44c-.52.43-2.31,1.58-3.28,2.46-.84.7-.9.75-.18.16-1,.75-1.76,1.46-2.7,2.2l16.14,6.68v-.14q-.65,2.37-1.28,4.76l.36-.61c4.54-7.57-4.92-18.32-12.7-12.69-1.49,1.07-3.23,2.12-4,3.91-3.09,7.25,1.91,16.26,10.68,13.89,5-1.35,7.39-4.47,10.58-7,3.9-3.09,7-7.27,9.76-11.38,6-9,9.42-20.86,8.17-31.71C134.9,48.83,129,38.36,118.73,33c-8.74-4.59-19-4.72-28.41-2.24-20.2,5.32-33.91,23.69-30.87,44.59,2.7,18.62,23.84,36.31,43,29.48,6.38-2.28,6.09-10.29,0-12.68Z"/><path class="cls-1" d="M185.39,75c2.75-5.33-3.32-12.23-5.54-17-2.38-5.11-4.48-10.52-4.86-16-.33-4.93.64-9.72,3.7-13.34,4.55-5.37,12.27-8.13,19.1-8.76,15.27-1.43,22.13,11.53,19.47,25.31-1.32,6.89-4.67,10.76-10.24,13.68-6.77,3.54-18.57,1.73-23.34,9.48A8.17,8.17,0,0,0,185,78.14c7.62,7.83,24.46,1,32.56-3.54,9.67-5.35,15.8-15.18,17.61-25.93,1.93-11.5.17-23.11-7.07-32.46-6.57-8.48-17.14-12.45-27.64-12.5-20.22-.1-39.48,13.5-40.25,34.53-.31,8.69,2.8,17.39,6.79,25a36.59,36.59,0,0,0,7.77,10c2.3,2,8.35,6.34,10.67,1.83Z"/><path class="cls-2" d="M262.39,122.31c-2.8.14-3.34.29-1.64.44l.87-.11c.62-.18,1.05-.53,1.65-.71a52.3,52.3,0,0,1,5.2-.92,77.73,77.73,0,0,1,9.62-1.17,67.57,67.57,0,0,1,10.06-.07c2.18.19,4.54.7,5.52,2.88a8.06,8.06,0,0,1,.59,2.75,18.54,18.54,0,0,0,0,2,1.15,1.15,0,0,1-.13.76l1.14-.9c0-.06-3.81-.25-4-.28-1.7-.22-3.4-.53-5.08-.87-3.24-.66-6.45-1.49-9.64-2.35-1.49-.4-3-.78-4.46-1.24-.73-.23-2.17-.58-2.66-1.26l-1.65,6.26A25.33,25.33,0,0,1,291,128q.56-4.2,1.1-8.4a21.61,21.61,0,0,1-11.9-.47c-4.11-1.31-8.44-2.49-12.37,0-3.55,2.28-2.47,8.84,2.31,8.5,3.9-.27,7.7-.63,10.85-3.12,1.5-1.19.86-3.68-.58-4.54-3.09-1.83-6.8-1.69-10.27-1.46.76,2.83,1.53,5.67,2.3,8.5,1.09-.69,2.47,0,3.64.37a41.64,41.64,0,0,0,5.46,1.5,31.36,31.36,0,0,0,13-.45c3.8-.93,4.54-6.52,1.1-8.4a35,35,0,0,0-32.54-.5c-2,1-3,4.35-1.64,6.26,4.11,5.58,11.87,6.6,18.21,8.12a101.16,101.16,0,0,0,10.94,2c3.44.43,7.36.91,10.11-1.74,4.64-4.47,2.72-13.87-.92-18.31-4.44-5.45-12.47-5.22-18.83-4.87a71.92,71.92,0,0,0-12.2,1.77c-3.31.77-8.09,1.58-10.35,4.37a3.32,3.32,0,0,0-.25,4.28c.9,1.16,2.91,1.82,4.2.84Z"/><path class="cls-2" d="M108.64,197.59c-3,2.95-4.88,7.11-6.58,10.91A65.93,65.93,0,0,0,98,220.89c-.91,4-.93,8.18,1.78,11.54a10.71,10.71,0,0,0,10.38,3.81c9-1.64,10.42-12.71,11.38-20.13.57-4.41.78-9.22-.63-13.51s-6.1-8-10.64-5.38c-2.32,1.36-2.81,5-3.45,7.44s-1.2,4.89-1.69,7.36c-1,5.23-1.77,10.51-2.5,15.79-.3,2.16.34,4.27,2.53,5.16,1.89.75,4.49.19,5.46-1.79a68.82,68.82,0,0,0,6.67-23.66c.48-4.85-7.84-6-8.59-1.16Q107.32,215,106,223.61c-.45,2.91-1,6.52,2.43,7.89,2.76,1.11,6.23-.82,6-4-.24-4-4.94-5-7.19-1.95l-.14.19,3.4-2h-.27l2.86,1.18-.2-.17c.41,1,.81,1.95,1.21,2.93,0,1,.19-1.14.22-1.37l.39-2.53.78-5.05,1.56-10.09-8.6-1.17A56.63,56.63,0,0,1,103,226.76l8,3.37c1.32-9.43,2.68-18.88,5.63-28l-3.05,3.05c-.71.26-1-.68-1.09-.19s.21.93.29,1.3a20,20,0,0,1,.44,4.08,47.26,47.26,0,0,1-.82,8.64c-.47,2.84-.66,11.46-5.69,9.79-4.79-1.59-1.41-9.85-.48-13,.78-2.64,1.65-5.29,2.61-7.87a75.93,75.93,0,0,0,3.12-8.41,2,2,0,0,0-3.34-1.95Z"/><path class="cls-2" d="M85.69,184.65c-8.82,6.86-21.94,14.79-22,27.51,0,6.16,4,11.17,10.25,11.75,6,.56,11-3.12,14.28-7.85,3.63-5.32,5.63-11.9,8-17.82.94-2.32,1.89-4.56,1.66-7.12A6.38,6.38,0,0,0,91,185c-3.15.2-6,2.65-8.13,4.75a46.35,46.35,0,0,0-6.1,7.72c-1.76,2.64-3.41,5.36-5,8.12s-4.25,6.49-4.51,9.87a6.19,6.19,0,0,0,7.52,6.56c3.77-.72,5.74-4.24,7.64-7.24A103.19,103.19,0,0,0,88,205.09c.83-1.66,1.61-3.36,2.35-5.07.82-1.9,1.83-3.75,1.79-5.87l-2,3.46.69-.35c2.55-1.32,2-4.61,0-6.06l-.69-.5a4,4,0,0,0-4.86.62c-1.7,1.77-2.36,4.33-3.38,6.54s-2.07,4.31-3.22,6.42c-1,1.87-2.09,3.7-3.22,5.51-.63,1-1.27,2-2,3a8.64,8.64,0,0,0-.59.8c-.34.32-.3.34.13.06,1.42,3.06,2.45,3.84,3.06,2.33,1.35-1.62,2.17-4.14,3.22-6q1.77-3.12,3.71-6.17c2.17-3.41,4.45-7,7.73-9.5.08-.06,1.29-.78,1.28-.83s-3.58-1.17-2.67-1.88a14.41,14.41,0,0,0-.27,1.52c-.75,2.28-1.77,4.49-2.66,6.72-1.61,4-2.88,8.41-5.22,12.11-1.51,2.39-4.28,4.74-7.33,4.12s-2.95-4.38-2.27-6.76c1.23-4.32,4.46-7.75,7.68-10.72,1.77-1.63,3.63-3.16,5.43-4.75a28.53,28.53,0,0,0,5.09-6c1.78-2.7-2-4.85-4.12-3.18Z"/><path class="cls-2" d="M250.57,169.18c1.36,2.72,3.69,4.79,5.69,7s3.72,4.28,5.4,6.55c2.54,3.44,6.64,8.58,4.75,12.92a3.06,3.06,0,0,1-1.41,1.63,1.69,1.69,0,0,1-.28.12c.49-.18.62.92,0-.35-1.33-2.84-3.16-5.51-4.58-8.32a127,127,0,0,1-7.46-18.25l-4.5,5.9c2.79,0,5.62,5.81,7.08,8l4.4,6.49a35.42,35.42,0,0,1,2.09,3.22c.13.26.24.55.38.8.39.72,0,1,.31.2l5.29-2.15c-.73-.23-.53-.39-1-.95a7.23,7.23,0,0,0-3.43-2.38,3.58,3.58,0,0,0-3.55.94c-4.07,4.68.7,10,5.49,11.42,2.66.76,4.8-.95,5.76-3.27,1.39-3.32.19-7-1.55-9.93-1.94-3.25-4.26-6.33-6.38-9.46-3.63-5.35-7.49-12.33-14.89-12.22-2.91,0-5.44,3-4.49,5.9A139.75,139.75,0,0,0,254,197.05c2,3.57,4,8.12,8.27,9.32s8.69-1.12,11.18-4.57c4.93-6.84,2-15.36-2.57-21.46a64.67,64.67,0,0,0-7.95-9.21c-2.94-2.68-6.18-5.29-10.28-5.56-1.94-.12-2.82,2.1-2.07,3.61Z"/><path class="cls-2" d="M260.66,153.35a40.16,40.16,0,0,0,9.75,8.62,70.12,70.12,0,0,0,11.85,6.76c4.13,1.76,8.87.91,11.15-3.23,1.93-3.51,1.25-7.79-.61-11.16s-5-5.88-8.06-8.18c-3.53-2.64-7.09-5.26-10.69-7.81s-8-4-11.87-1.46c-3.62,2.36-4.37,7.3-2.74,11.06,2,4.51,6.78,6.65,10.82,8.91l14.15,7.95c3.71,2.09,9.11-2.37,6.26-6.26a58.35,58.35,0,0,0-23.95-19.43c-2.27-1-4.91-.67-6.26,1.65A4.62,4.62,0,0,0,262.1,147c2,1.08,4,2,6.35,1.33a2.86,2.86,0,0,0,2-2.65c.16-2.4-1.33-4.16-2.82-5.87L262.1,147a49.7,49.7,0,0,1,20.66,16.14L289,156.9l-11.46-6.45c-3-1.68-6.65-3.14-9.17-5.45-.77-.71-.37-.36-.66-1.06a.26.26,0,0,1,0,.32c.13-.57.16-.68.1-.33,0,0-.91.91-1,.82a14.58,14.58,0,0,0,2,1.11c3.37,2.23,6.6,4.72,9.89,7.08,2.26,1.63,4.95,3.39,6.29,5.93a4.77,4.77,0,0,1,.64,1.72c-.06-.45.18.67,0,.27-.17.55-.19.67-.07.37a1,1,0,0,1,.25-.22c.42-.13.42-.23,0-.28a2.68,2.68,0,0,1-.77-.3c-7.37-3.16-13.81-8.44-21.52-10.87-2-.63-4.29,2-2.91,3.79Z"/><path class="cls-2" d="M76.06,163.29c-4.49-1.78-9.88,2.28-13.47,4.65a83.81,83.81,0,0,0-11.38,9C48,180,43.9,183.68,42.8,188.17,41.61,193,44.44,198.48,49.71,199s9.49-3.79,13.3-6.69q6.1-4.65,12.07-9.47c3.35-2.71,8-6.4,8.22-11.12a6.27,6.27,0,0,0-4.36-6.13c-2.74-.89-5.3.08-7.63,1.54a100.43,100.43,0,0,0-24,20.91c-1.41,1.73-1.83,4-.35,5.9a4.49,4.49,0,0,0,5.8,1.16,31.94,31.94,0,0,0,4.27-3,8.58,8.58,0,0,0,2.36-4,2.62,2.62,0,0,0-1.83-3.22,8.84,8.84,0,0,0-4.65.15,29.31,29.31,0,0,0-4.69,2.34l5.45,7.06a116.71,116.71,0,0,1,11.49-11.62c1.92-1.66,3.9-3.24,6-4.73,1-.74,2.07-1.47,3.13-2.17.63-.42,1.26-.85,1.91-1.25l.63-.38c.76-.34.33-.5-1.28-.48-.39-.65-.77-1.31-1.15-2,.44-1.42.41-1.62-.07-.59l-.39.61a11.1,11.1,0,0,1-1.15,1.32,40.94,40.94,0,0,1-3.27,2.91q-3.88,3.18-7.83,6.26Q58,185.18,54.22,188c-.18.13-3.61,2.39-3.62,2.31s.44.37.7.23c-.31.17.28-.8.35-.93a7.08,7.08,0,0,1,1-1.46c1-1.17,2-2.26,3.1-3.34a75.19,75.19,0,0,1,6.83-6.16,72.37,72.37,0,0,1,7.28-5c2.52-1.55,5.52-2.68,7.64-4.77,1.92-1.9.76-4.64-1.46-5.53Z"/><path class="cls-2" d="M178.18,65.72c.3,6,2.26,12,3.71,17.8.77,3,5.6,3.17,6.29,0a56.37,56.37,0,0,0,1.38-13.14L183,72.15a7.7,7.7,0,0,1,.81,4.81c-.35,3,4.16,4.77,6.08,2.51a13.46,13.46,0,0,0,3.28-7.71H186a38.16,38.16,0,0,1-.27,9.55,3.82,3.82,0,0,0,1.68,4.14,3.7,3.7,0,0,0,4.44-.57,43.37,43.37,0,0,0,6.56-10.61l-6.91-1.87a31.34,31.34,0,0,1-2.4,9.36c-.7,1.69.63,3.8,2.17,4.42A3.83,3.83,0,0,0,196,84.64c2.93-4,5.84-8,8.76-12l-6.87-2.9A21.34,21.34,0,0,1,192.11,81l5.31,5.31A133.87,133.87,0,0,1,207.57,75l-5.9-4.55c-1.93,4-5.14,7.43-6.48,11.66-.79,2.49,2,3.89,4,3,4.37-1.86,7-6.85,9-10.92,1.8-3.71-2.73-7.7-5.9-4.55A133.87,133.87,0,0,0,192.11,81a3.86,3.86,0,0,0,0,5.31,3.79,3.79,0,0,0,5.31,0,28.44,28.44,0,0,0,7.67-14.47,3.78,3.78,0,0,0-6.87-2.89q-4.38,6-8.75,12l6.85,2.89a37.55,37.55,0,0,0,2.59-11.35,3.68,3.68,0,0,0-3.22-3.65,3.8,3.8,0,0,0-4.07,2.66,34.59,34.59,0,0,1-5,8.28l6.13,3.57a46.15,46.15,0,0,0,.4-11.5,3.6,3.6,0,0,0-7.2,0,5,5,0,0,1-1.12,2.68L191,77a14,14,0,0,0-1.87-8.36c-1.69-3-6.66-1.73-6.54,1.78a56.47,56.47,0,0,1-.65,11.4h6.29c-1.7-5.68-3.13-11.9-5.93-17.16a2.2,2.2,0,0,0-4.07,1.1Z"/><path class="cls-2" d="M100.94,98.66c.3,2.2,2.65,4.4,4.2,5.87a37.72,37.72,0,0,0,6.38,4.79c3.09,1.88,6.83-2.68,4-5.12a59.64,59.64,0,0,1-6.17-6l-4.92,4.91a17.7,17.7,0,0,0,10.08,5.43c3.44.56,5.88-3.11,3.43-5.88a7.17,7.17,0,0,1-1.27-2,10.28,10.28,0,0,1-.39-1.34c0-.72-.21-.58-.52.42l-1.57.92.48-.1h-1.9l.46.15-1.57-.92c1.34,1,2.08,3.36,2.88,4.84,1.85,3.4,6.38,1.48,6.71-1.82a84.65,84.65,0,0,0,.4-10.8l-7.15,1c.66,2.74,1.33,5.47,2,8.21l7.07-2a11.13,11.13,0,0,1-.07-7.12h-7.11a71.75,71.75,0,0,1,1,7.17c.2,2.47.17,5,1.47,7.21a2.92,2.92,0,0,0,5,0c1.39-2.5,1.15-5.28.88-8s-.67-5.56-1.18-8.31c-.7-3.76-6.13-3.26-7.11,0a18.14,18.14,0,0,0,.11,11c1.48,4.45,8.22,2.66,7.07-2l-2-8.2c-1-4-7.28-3.16-7.15,1a90.49,90.49,0,0,1-.32,10.8l6.71-1.82c-1.16-2.08-2.15-4.62-4-6.2a4.61,4.61,0,0,0-6.38.2c-3.36,3.48,0,9.76,2.57,12.61l3.42-5.89a11.57,11.57,0,0,1-7-3.55c-3.11-3.25-7.9,1.61-4.92,4.91a41.63,41.63,0,0,0,7.14,6.25q1.65-2.8,3.29-5.63c-2.17-1.07-4.27-2.22-6.35-3.47-1.75-1.06-3.85-2.91-5.9-3.19a1.35,1.35,0,0,0-1.62,1.63Z"/><path class="cls-2" d="M121.07,105.62c-1.53-2.91-3.55-5.54-5-8.5A35.23,35.23,0,0,1,113.33,88c-1-4.86-9-3.81-8.7,1.18.55,8.18,5.16,17.62,13.06,20.82,2.6,1,4.48-2.32,3.38-4.39Z"/><path class="cls-1" d="M173.49,83.44c12.84-2.37,26.3-2.87,38.78,1,13.54,4.18,25,13.14,35.85,22.28,6.12,5.17,12.22,10.54,16.66,17.21s7.1,14.87,5.66,22.75c-1,5.27-3.68,10-6.6,14.54A147.13,147.13,0,0,1,185.2,221c-11,3.46-22.62,5.61-34.08,4.32C137,223.7,123.93,217,112,209.23c-11.15-7.31-21.83-15.87-29.75-26.7-5.44-7.45-16.44-22.47-17.21-31.91-.92-11.4,16.65-20.52,24.53-26.45a276.75,276.75,0,0,1,37-23.91C141.37,92.49,157.08,86.47,173.49,83.44Z"/><path class="cls-2" d="M241.3,76.22a10.7,10.7,0,0,1,.76-3.5c1.14-2.39,4-3.6,6.63-3.59a21.1,21.1,0,0,1,7.64,2c3.27,1.32,6.61,2.68,9.28,5s4.62,5.74,4.21,9.25a14.38,14.38,0,0,1-1.7,4.79,57.82,57.82,0,0,1-8,11.69c-4.58,5.19-15.45,11.58-21.06,4.24C233.69,99.05,240.52,83.88,241.3,76.22Z"/><path class="cls-3" d="M235.18,123.24a15.77,15.77,0,0,0,6.14,8.21c2.8,2.05,7.46,4,9.6,0,1.71-3.19,0-7.55-2.42-9.9a11.83,11.83,0,0,0-9.56-3.44c-2.8.36-4.8,3-3.28,5.71a4,4,0,0,0,2,1.91c3.83,1.64,7.11-2.4,4.42-5.73-.09-.12-.18-.24-.28-.35.32.55.65,1.1,1,1.66l-.15-.41c-.89,1.55-1.77,3.11-2.65,4.66a4.25,4.25,0,0,1,2.82.89,6,6,0,0,1,1.36,1.4c.15.23.28.46.41.7.17.91.32.74.45-.48l1.48-.87c.33-.07-1.15-.69-1.4-.82a16.34,16.34,0,0,1-2.39-1.51,31.36,31.36,0,0,1-3.85-3.71,2.2,2.2,0,0,0-3.65,2.13Z"/><path class="cls-3" d="M228,125.09l-.06-.14a1.91,1.91,0,0,0-2.6-.68,3.75,3.75,0,0,0-1.75,4.34,3.82,3.82,0,0,0,4.35,2.53c1.61-.44,2.44-2.59,2.5-4.09a5.17,5.17,0,0,0-1.67-4.09,2.46,2.46,0,1,0-3,3.86c.32.19.08,0,0,0,.08,0,.23.3,0,0a3.1,3.1,0,0,1,.21.36c-.17-.37,0,.21,0,0s0,.18,0,.23c0,.34.07-.29,0,0,0,0-.13.41-.06.24s-.27.26,0,0l1.47-.61c-.77.1,0,0-.07.1s0-.32,0,0c0,.16.18.23,0,.36a2,2,0,0,0,.88-2.15,1.73,1.73,0,0,0-.14-.31Z"/><path class="cls-3" d="M234.39,135.18c-2.48,0-3.27,3.59-1.15,4.78a3.09,3.09,0,0,0,3.56-.77,3.78,3.78,0,0,0,1.09-3.53,2.19,2.19,0,0,0-2.65-1.5c-1.05.24-2.32.37-3.07,1.23a2,2,0,0,0,.88,3.33c1.07.4,2.3-.13,3.34-.41l-2.65-1.51c.12.49-.17-.41,0,0,0,.19,0,.2,0,0a.44.44,0,0,1,.12-.3c-.16.31.14-.1,0,0s-.07.08.09-.06c-.16.09-.17.11,0,0a2.29,2.29,0,0,1,1.32.3,1,1,0,0,1,.33.75c0-.29-.1.34-.15.41s-.94.55-.59.5a1.71,1.71,0,0,0,1.23-1.88,1.73,1.73,0,0,0-1.69-1.49Z"/><path class="cls-3" d="M95.67,134.24c-5-1-9.36,2.24-11.39,6.71-.48,1.07-.42,2.73.87,3.29,6.33,2.73,14.61-.83,16.14-7.88a2.89,2.89,0,0,0-2.74-3.6c-3.26-.22-9,1.11-9,5.22A2.45,2.45,0,0,0,92,140.36c1.37.14,2.2-.57,3.33-1.19a6,6,0,0,1,3.25-.72l-2.75-3.6a6.41,6.41,0,0,1-8.8,5l1.68,3c1.25-3,4.45-5,7.27-6.41a1.19,1.19,0,0,0-.28-2.15Z"/><path class="cls-3" d="M87.69,139.81a2.5,2.5,0,0,0,.21,1.95,2.38,2.38,0,0,0,2,1.18,2.05,2.05,0,0,0,2.13-2,1.9,1.9,0,0,0-.57-1.37,2.2,2.2,0,0,0-.9-.52l-.13,0,.47.2-.08,0,.41.31-.14-.12.32.4a.47.47,0,0,1-.07-.12l.2.48a.29.29,0,0,1,0-.09l.07.53a.33.33,0,0,1,0-.14l-.07.53a.36.36,0,0,1,0-.1,2.07,2.07,0,0,0-.21-1.54,2,2,0,0,0-2.74-.72,2.22,2.22,0,0,0-.92,1.2Z"/><path class="cls-3" d="M91.06,150.68a2.5,2.5,0,0,0-.31.78c.16-.26.31-.52.46-.78a2,2,0,0,0-.27,2.4,2.47,2.47,0,0,0,.91,1,2.58,2.58,0,0,0,3-.36,3,3,0,0,0,.91-2.17A2.52,2.52,0,0,0,93.91,149a2.05,2.05,0,0,0-2.1.72,2,2,0,0,0-.16,2.22l.07.13-.21-.49a7.68,7.68,0,0,0,.32.79l-.21-.5a2.13,2.13,0,0,1,.07.27c0-.19,0-.37-.08-.56a1.93,1.93,0,0,1,0,.34c0-.18,0-.37.08-.55a1.12,1.12,0,0,1-.08.26l.21-.48-.08.13.31-.4-.11.11.41-.31-.14.07.47-.2a.19.19,0,0,1-.1,0l.52-.07h-.18l.52.07-.16,0,.46.19c-.18-.09-.12-.16.21.19-.18-.19.32.43.17.21a2.11,2.11,0,0,0-1.65-.95l1.27.53c.37.47.23.31.16.18s.16.44.08.2a1.61,1.61,0,0,0-2.92-.38Z"/><path class="cls-1" d="M240.89,60.7a41.9,41.9,0,0,1-1.06-24.64c1.41-5.8,3.93-11.46,8.13-15.7s10.26-6.88,16.17-6.06A127.65,127.65,0,0,1,267,40.6a35.28,35.28,0,0,0,9.88-22.5c9.11-.24,17.4,7,19.9,15.78s-.1,18.44-5.32,25.91C278.49,78.33,250.4,85.77,240.89,60.7Z"/><path class="cls-2" d="M59.5,123.31a10.53,10.53,0,0,1-3.39-1.14c-2.26-1.4-3.14-4.35-2.83-7a21.12,21.12,0,0,1,2.85-7.37c1.68-3.11,3.4-6.27,6-8.67s6.23-4,9.66-3.16a14.15,14.15,0,0,1,4.57,2.22,57.71,57.71,0,0,1,10.74,9.23c4.65,5.13,9.8,16.64,1.88,21.4C81.35,133.41,67,124.93,59.5,123.31Z"/><path class="cls-1" d="M44,122c-8.08,2.08-16.77,1.19-24.61-1.67-5.6-2-11-5.18-14.7-9.83S-1,99.55.49,93.76a127.78,127.78,0,0,1,26.45.1A35.23,35.23,0,0,0,5.67,81.55c.77-9.09,8.91-16.52,17.89-18s18.32,2.14,25.17,8.16C65.71,86.58,70,115.32,44,122Z"/><path class="cls-4" d="M70.16,69.32c-2.71,20.88,20,35.23,39,31,21.88-4.9,25.65-37.46,9.8-50.74-12-10-28.89-9.63-39.7,1.92C73.74,57.41,70.91,63.51,70.16,69.32Z"/><path d="M114,80.22a15.69,15.69,0,0,0-3.28-29.92C97,47.49,85.73,63.89,95.33,75,100.15,80.51,106.8,83.42,114,80.22Z"/><path class="cls-4" d="M114.59,66.67c5.13.9,8.81-5.8,5-9.59-3-3-8.37-2.72-9.39,1.54C109.38,62.17,110.61,66,114.59,66.67Z"/><path class="cls-4" d="M164.44,39.64c-3.1,23.94,23,40.4,44.77,35.51,25.09-5.63,29.41-43,11.24-58.19-13.73-11.5-33.13-11-45.53,2.2C168.54,26,165.3,33,164.44,39.64Z"/><path d="M214.67,52.15a18,18,0,0,0-3.75-34.32c-15.76-3.22-28.63,15.59-17.61,28.27C198.84,52.47,206.46,55.81,214.67,52.15Z"/><path class="cls-4" d="M215.39,36.61c5.89,1,10.11-6.65,5.76-11-3.48-3.48-9.59-3.12-10.76,1.76C209.41,31.44,210.82,35.81,215.39,36.61Z"/><path class="cls-2" d="M189.56,100.34c-.69,7.37-1.55,14.84-4.42,21.66s-8,13-15,15.4a22.2,22.2,0,0,1-18.87-2.53c-3.16-2-11.61-9.48-10.39-14,1.28-4.77,11.87-2.78,16.13-3.48a59.06,59.06,0,0,0,17.94-6C177.75,109.87,189.22,104,189.56,100.34Z"/><path class="cls-5" d="M266.52,94.48c0-.22.05-.43.07-.65Z"/></g></g></svg>